<svg xmlns="http://www.w3.org/2000/svg" width="65" height="65" viewBox="0 0 65 65">
    <g fill="#D29851" fill-rule="nonzero">
        <path d="M60.938 0H41.978c-1.828 0-4.265 1.016-5.552 2.302L.407 38.322a1.309 1.309 0 0 0 0 1.897L20.718 60.53a1.309 1.309 0 0 0 1.896 0 1.309 1.309 0 0 0 0-1.896L3.25 39.271 38.323 4.198c.812-.745 2.505-1.49 3.656-1.49h18.959c.744 0 1.354.61 1.354 1.354v18.959c0 1.15-.745 2.844-1.49 3.656l-36.02 36.02a1.309 1.309 0 0 0 0 1.897c.27.27.609.406.947.406.339 0 .677-.135.948-.406l36.02-36.021C63.985 27.286 65 24.849 65 23.02V4.062A4.074 4.074 0 0 0 60.937 0z"/>
        <path d="M57 15c0-3.85-3.15-7-7-7s-7 3.15-7 7 3.15 7 7 7 7-3.15 7-7zm-11.2 0c0-2.31 1.89-4.2 4.2-4.2 2.31 0 4.2 1.89 4.2 4.2 0 2.31-1.89 4.2-4.2 4.2-2.31 0-4.2-1.89-4.2-4.2zM15.392 33.392a1.264 1.264 0 0 0 0 1.831l14.385 14.385c.261.261.588.392.915.392.327 0 .654-.13.916-.392a1.264 1.264 0 0 0 0-1.831L17.223 33.392a1.264 1.264 0 0 0-1.83 0zM19.392 29.392a1.264 1.264 0 0 0 0 1.831l14.385 14.385c.261.261.588.392.915.392.327 0 .654-.13.916-.392a1.264 1.264 0 0 0 0-1.831L21.223 29.392a1.264 1.264 0 0 0-1.83 0zM38.692 41c.327 0 .654-.13.916-.392a1.264 1.264 0 0 0 0-1.831L25.223 24.392a1.264 1.264 0 0 0-1.83 0 1.264 1.264 0 0 0 0 1.831l14.384 14.385c.261.261.588.392.915.392z"/>
    </g>
</svg>
