<svg xmlns="http://www.w3.org/2000/svg" width="68" height="83" viewBox="0 0 68 83">
    <g fill="#D29851" fill-rule="nonzero">
        <path d="M65.025 36.817c0-.212.531-.743.85-.955.744-.637 1.487-1.485 1.487-2.546 0-1.061-.743-1.804-1.487-2.547-.319-.318-.744-.743-.85-.955 0-.212.425-.849.637-1.167.532-.849 1.063-1.697.85-2.758-.212-1.061-1.168-1.592-2.018-2.122-.319-.213-.956-.637-1.063-.743-.106-.212.213-.849.319-1.273.319-.955.744-1.91.212-2.865-.425-.955-1.487-1.273-2.443-1.592-.425-.106-1.063-.318-1.169-.53-.106-.212 0-.849 0-1.273.106-.955.212-2.016-.425-2.865-.637-.849-1.7-.955-2.762-1.061-.425 0-1.17-.106-1.275-.212-.107-.106-.213-.85-.213-1.273-.106-.955-.212-2.016-1.063-2.76-.85-.636-1.912-.53-2.868-.423-.425 0-1.169.106-1.275 0-.213-.107-.425-.743-.532-1.168-.318-.954-.637-2.015-1.593-2.44-.956-.424-2.019-.106-2.869.212-.425.106-1.063.425-1.275.319-.213-.106-.531-.637-.744-1.061-.531-.85-1.062-1.804-2.125-2.016-.956-.212-1.912.318-2.762.849-.319.212-.957.636-1.169.636-.212 0-.744-.53-.956-.849C35.806.743 35.062 0 34 0c-1.063 0-1.806.743-2.55 1.485-.319.319-.744.743-.956.85-.213 0-.85-.425-1.169-.637-.85-.53-1.7-1.061-2.762-.85-1.063.213-1.594 1.168-2.125 2.017-.213.318-.638.955-.744 1.06-.213 0-.85-.211-1.275-.318-.957-.318-1.913-.742-2.869-.212-.956.425-1.275 1.486-1.594 2.44-.106.425-.319 1.062-.531 1.168-.213.106-.85 0-1.275 0-.956-.106-2.019-.213-2.869.424-.85.637-.956 1.698-1.062 2.759 0 .424-.106 1.167-.213 1.273-.106.106-.85.212-1.275.212-.956.106-2.018.212-2.762 1.061-.638.849-.532 1.91-.425 2.865 0 .424.106 1.167 0 1.273-.106.212-.744.424-1.169.53-.956.319-2.019.637-2.444 1.592-.425.955-.106 2.016.213 2.865.106.424.425 1.06.319 1.273-.107.212-.638.53-1.063.743-.85.53-1.806 1.06-2.019 2.122-.212 1.06.319 1.91.85 2.758.213.319.638.955.638 1.167 0 .213-.532.743-.85.955-.744.637-1.488 1.486-1.488 2.547 0 1.06.744 1.803 1.488 2.546.318.318.744.743.85.955 0 .212-.425.849-.638 1.167-.531.849-1.062 1.698-.85 2.759.213 1.06 1.169 1.591 2.019 2.122.319.212.956.636 1.063.742.106.213-.213.85-.32 1.274-.318.955-.743 1.91-.212 2.864.425.955 1.488 1.274 2.444 1.592.425.106 1.063.318 1.169.53.106.213 0 .85 0 1.274-.106.954-.213 2.015.425 2.864.637.85 1.7.955 2.762 1.061.425 0 1.169.106 1.275.212.107.107.213.85.213 1.274.106.955.212 2.016 1.062 2.758.85.743 1.913.53 2.869.425.425 0 1.169-.106 1.275 0 .212.106.425.742.531 1.167.107.212.213.53.319.742l-6.162 14.112 10.093-1.38 5.95 8.276 6.056-14.111 5.525 13.9 6.163-8.064 10.094 1.697-6.056-14.96c0-.106.106-.212.106-.318.106-.425.319-1.061.531-1.167.212-.107.85 0 1.275 0 .956.106 2.019.212 2.869-.425.85-.636.956-1.697 1.062-2.758 0-.425.107-1.168.213-1.274.106-.106.85-.212 1.275-.212.956-.106 2.019-.212 2.762-1.06.638-.85.532-1.91.425-2.866 0-.424-.106-1.167 0-1.273.106-.212.744-.424 1.169-.53.956-.319 2.019-.637 2.444-1.592.425-.955.106-2.016-.213-2.864-.106-.425-.425-1.061-.319-1.274.107-.212.638-.53 1.063-.742.85-.53 1.806-1.061 2.019-2.122.212-1.061-.319-1.91-.85-2.759-.319-.318-.744-.955-.744-1.167zm-37.4 41.697l-4.462-6.26-7.65 1.061 4.25-9.76c.85.317 1.806 0 2.656-.32.425-.105 1.062-.424 1.275-.317.212.106.531.636.744 1.06.53.85 1.062 1.804 2.125 2.017 1.062.212 1.912-.319 2.762-.85.319-.212.956-.636 1.169-.636.212 0 .744.53.956.849.425.424.85.849 1.381 1.167l-5.206 11.99zm17.319-6.26l-4.675 6.154-4.888-12.201c.425-.319.744-.637 1.063-.955.319-.319.743-.743.956-.849.212 0 .85.424 1.169.637.85.53 1.7 1.06 2.762.848 1.063-.212 1.594-1.167 2.125-2.016.213-.318.638-.954.744-1.06.212-.107.85.212 1.275.318.956.318 1.913.742 2.869.212l4.037 10.186-7.437-1.274zm19.444-37.877c-.638.636-1.382 1.273-1.488 2.228-.106.955.425 1.803.956 2.546.213.318.638.955.638 1.167-.106.212-.744.637-1.063.743-.743.424-1.593.955-1.912 1.91-.319.849 0 1.803.319 2.652.106.425.425 1.061.318 1.273-.106.213-.85.425-1.169.53-.85.32-1.806.638-2.337 1.38-.531.849-.425 1.804-.319 2.653 0 .424.106 1.167 0 1.273-.106.106-.85.212-1.275.212-.85.106-1.912.212-2.55.849-.637.637-.743 1.698-.85 2.546 0 .425-.106 1.167-.212 1.274-.213.106-.85 0-1.275 0-.85-.107-1.913-.213-2.656.318-.744.53-1.17 1.485-1.382 2.334-.106.424-.319 1.061-.531 1.167-.212 0-.85-.212-1.275-.318-.85-.318-1.806-.637-2.656-.318-.85.318-1.381 1.167-1.913 1.91-.212.318-.637.954-.743 1.06-.213 0-.744-.424-1.17-.636-.743-.53-1.593-1.061-2.55-.955-.956.106-1.593.849-2.23 1.485-.32.319-.85.85-.957.85-.212 0-.744-.531-1.062-.85-.638-.636-1.381-1.379-2.231-1.485H30.6c-.85 0-1.594.53-2.338.955-.318.212-.956.636-1.168.636-.213-.106-.638-.742-.744-1.06-.425-.743-.956-1.592-1.913-1.91-.85-.319-1.806 0-2.656.318-.425.106-1.062.424-1.275.318-.212-.106-.425-.849-.531-1.167-.319-.849-.638-1.804-1.381-2.334-.85-.53-1.806-.425-2.657-.318-.425 0-1.168.106-1.274 0-.107-.107-.213-.85-.213-1.274-.106-.848-.212-1.91-.85-2.546-.85-.53-1.912-.637-2.762-.743-.425 0-1.17-.106-1.275-.212-.107-.212 0-.849 0-1.273.106-.849.212-1.91-.32-2.653-.53-.742-1.487-1.167-2.337-1.379-.425-.106-1.062-.318-1.168-.53-.107-.213.212-.85.318-1.274.319-.848.638-1.803.319-2.652-.319-.849-1.169-1.38-1.912-1.91-.32-.212-.957-.637-1.063-.743 0-.212.319-.849.637-1.167.532-.743 1.063-1.591.957-2.546-.106-.955-.85-1.592-1.488-2.228-.318-.319-.85-.85-.85-.955 0-.212.531-.743.85-1.061.638-.637 1.382-1.38 1.488-2.228.106-.955-.425-1.804-.957-2.547-.212-.318-.637-.955-.637-1.167.106-.212.744-.636 1.063-.743.743-.424 1.593-.954 1.912-1.91.319-.848 0-1.803-.319-2.652-.106-.424-.425-1.06-.319-1.273.107-.212.85-.425 1.17-.53.85-.319 1.806-.637 2.337-1.38.531-.849.425-1.804.319-2.652 0-.425-.107-1.168 0-1.274.106-.106.85-.212 1.274-.212.85-.106 1.913-.212 2.55-.849.638-.636.744-1.697.85-2.546 0-.424.107-1.167.213-1.273.213-.106.85 0 1.275 0 .85.106 1.912.212 2.656-.319.744-.53 1.169-1.485 1.381-2.334.107-.424.32-1.06.532-1.167.212 0 .85.212 1.275.318.85.319 1.806.637 2.656.319.85-.319 1.381-1.167 1.912-1.91.213-.318.638-.955.744-1.061.213 0 .744.424 1.169.637.744.53 1.594 1.06 2.55.954.956-.106 1.594-.848 2.231-1.485.319-.318.85-.849.956-.849.213 0 .744.53 1.063.849.637.637 1.275 1.38 2.231 1.485.956.107 1.806-.424 2.55-.954.319-.213.956-.637 1.169-.637.213.106.638.743.744 1.06.425.744.956 1.592 1.912 1.91.85.319 1.806 0 2.656-.318.425-.106 1.063-.424 1.276-.318.212.106.425.849.53 1.167.32.849.638 1.804 1.382 2.334.85.53 1.806.425 2.656.319.425 0 1.169-.106 1.275 0 .106.106.213.849.213 1.273.106.849.212 1.91.85 2.546.637.637 1.7.743 2.55.85.425 0 1.169.105 1.275.211.106.213 0 .85 0 1.274-.106.848-.213 1.91.319 2.652.53.849 1.487 1.167 2.337 1.38.425.105 1.063.318 1.169.53.106.212-.213.849-.319 1.273-.319.849-.638 1.804-.319 2.653.319.848 1.169 1.379 1.913 1.91.319.212.956.636 1.062.742 0 .212-.319.743-.637 1.167-.532.743-1.063 1.592-.956 2.547.106.955.85 1.591 1.487 2.228.319.318.85.742.85.955.212.106-.319.636-.638.955z"/>
        <path d="M13.919 39.257a13.418 13.418 0 0 1-.638-2.97c-.106-.531-.637-.956-1.168-.85-.532.107-.957.637-.85 1.168.106 1.06.425 2.122.743 3.183.107.424.531.742 1.063.742h.318c.32-.106.638-.742.532-1.273zM30.813 12.626h.106c.956-.106 2.018-.212 2.975-.212.637 0 1.062-.53 1.062-1.061 0-.637-.425-1.061-1.062-1.061-1.063 0-2.231.106-3.294.212-.531.106-.956.637-.85 1.167.106.53.531.955 1.063.955zM19.55 17.825c.212 0 .531-.106.744-.212a34.599 34.599 0 0 1 2.337-1.804c.532-.318.638-.955.319-1.485-.319-.53-.956-.637-1.488-.319a24.945 24.945 0 0 0-2.656 2.016c-.425.425-.531 1.061-.106 1.486.213.106.531.318.85.318zM12.537 28.223h.32c.424 0 .85-.319 1.062-.743.319-.955.637-1.91 1.062-2.759.213-.53 0-1.167-.531-1.379-.531-.212-1.169 0-1.381.53-.425.956-.85 2.017-1.169 3.078-.213.53.106 1.06.637 1.273zM12.006 34.377c.638 0 1.063-.53 1.063-1.061 0-.955.106-2.016.212-2.971.106-.53-.319-1.167-.956-1.167-.531-.106-1.169.318-1.169.955-.106 1.06-.212 2.122-.212 3.183 0 .636.425 1.06 1.062 1.06zM14.875 22.387c.213.106.425.212.531.212.319 0 .744-.212.85-.53.532-.849 1.169-1.592 1.806-2.44.425-.425.32-1.061-.106-1.486-.425-.424-1.168-.318-1.487.106a24.917 24.917 0 0 0-2.019 2.653c-.212.53-.106 1.167.425 1.485zM54.081 27.374c.319.955.531 1.91.638 2.865.106.53.531.955 1.062.955h.107c.53-.107.956-.637.85-1.168-.213-1.06-.425-2.122-.744-3.183-.213-.53-.744-.848-1.275-.742-.425.106-.744.636-.638 1.273zM51.638 21.963c.53.849 1.062 1.697 1.487 2.652.212.425.531.637.956.637.106 0 .319 0 .425-.106.532-.212.744-.849.532-1.38a19.315 19.315 0 0 0-1.594-2.864c-.319-.53-.957-.637-1.488-.319-.531.213-.637.85-.319 1.38zM36.869 12.626c.956.106 2.019.318 2.975.637h.319c.425 0 .85-.319 1.062-.743.212-.53-.212-1.167-.744-1.273a16.962 16.962 0 0 0-3.187-.637c-.638-.106-1.169.318-1.169.955-.212.424.212.955.744 1.061zM49.831 19.522c.213.213.531.319.85.319.213 0 .532-.106.744-.212.425-.425.531-1.061.106-1.486a24.253 24.253 0 0 0-2.337-2.334c-.425-.424-1.063-.318-1.488.106-.425.424-.319 1.061.106 1.485.638.743 1.382 1.38 2.02 2.122zM55.994 32.255c-.638 0-1.063.53-1.063 1.06 0 .955-.106 2.016-.212 2.971-.107.53.319 1.167.85 1.167h.106c.531 0 .956-.424 1.063-.954.106-1.061.212-2.229.212-3.29v-.106c.106-.424-.319-.848-.956-.848zM45.9 15.809c.319 0 .744-.212.85-.53.319-.531.212-1.168-.319-1.486a19.358 19.358 0 0 0-2.868-1.591c-.532-.213-1.17 0-1.382.53-.212.53 0 1.167.532 1.38.956.424 1.806.848 2.656 1.379.106.318.319.318.531.318zM47.706 49.125a20.74 20.74 0 0 1-2.444 1.803c-.53.319-.637.955-.318 1.486.212.318.531.53.85.53a.812.812 0 0 0 .531-.212 24.945 24.945 0 0 0 2.656-2.016c.425-.424.532-1.061.106-1.485-.212-.425-.85-.425-1.38-.106zM55.462 38.514a.943.943 0 0 0-1.275.743c-.318.955-.637 1.91-1.062 2.759-.212.53 0 1.167.531 1.38.107.105.319.105.425.105.425 0 .744-.212.956-.636.425-.955.85-2.016 1.17-3.077.105-.53-.213-1.167-.745-1.274zM42.712 52.414c-.956.424-1.806.742-2.762 1.06-.531.213-.85.743-.744 1.274.106.424.531.743 1.063.743h.319c1.062-.319 2.124-.743 3.08-1.168.532-.212.745-.848.532-1.379-.213-.53-.956-.849-1.488-.53zM53.125 44.35c-.531-.318-1.169-.212-1.487.318-.532.85-1.17 1.592-1.807 2.44-.425.425-.319 1.062.106 1.486.213.212.425.212.744.212s.638-.106.85-.318a24.917 24.917 0 0 0 2.019-2.653c.213-.53.106-1.167-.425-1.485zM18.169 47.109c-.425-.425-1.063-.53-1.488-.106-.425.424-.531 1.06-.106 1.485a24.253 24.253 0 0 0 2.338 2.334c.212.212.424.212.743.212s.638-.106.85-.318c.425-.424.319-1.061-.106-1.485-.85-.743-1.594-1.38-2.231-2.122zM36.975 54.005c-.956.106-2.019.212-2.975.212-.638 0-1.063.425-1.063 1.061 0 .637.425 1.061 1.063 1.061 1.063 0 2.231-.106 3.294-.212.531-.106.956-.636.85-1.167 0-.637-.532-.955-1.169-.955zM25.288 52.414a33.351 33.351 0 0 1-2.657-1.486c-.531-.318-1.169-.212-1.487.319-.319.53-.213 1.167.319 1.485a19.358 19.358 0 0 0 2.868 1.591c.107.107.319.107.425.107.425 0 .744-.213.956-.637.32-.53.107-1.167-.424-1.38zM30.458 43.1c.233.254.563.401.902.401.34 0 .671-.147.903-.401l14.153-15.5a1.293 1.293 0 0 0-.057-1.793 1.215 1.215 0 0 0-1.749.058L31.36 40.376l-6.908-7.565a1.215 1.215 0 0 0-1.748-.06 1.293 1.293 0 0 0-.057 1.795l7.811 8.554zM16.363 44.668c-.532-.848-1.063-1.697-1.488-2.652-.213-.53-.85-.743-1.381-.53-.531.211-.744.848-.531 1.379.425.955.956 1.91 1.593 2.864.213.319.532.53.85.53a.812.812 0 0 0 .531-.211c.638-.213.744-.85.426-1.38zM31.025 54.005c-.956-.106-2.019-.318-2.869-.636-.531-.213-1.168.212-1.275.742a.942.942 0 0 0 .744 1.273c1.063.319 2.125.531 3.188.743h.106c.531 0 .956-.424 1.062-.955 0-.53-.319-1.06-.956-1.167zM28.794 11.883c-.213-.53-.744-.849-1.275-.742-1.063.318-2.125.742-3.081 1.167-.532.212-.744.848-.532 1.379.213.424.532.637.957.637.106 0 .318 0 .425-.107.85-.424 1.806-.742 2.762-1.06.531-.107.85-.637.744-1.274z"/>
    </g>
</svg>
